<svg width="30" height="30" viewBox="0 0 30 30" fill="none" xmlns="http://www.w3.org/2000/svg">
<path fill-rule="evenodd" clip-rule="evenodd" d="M7.25 8C7.25 7.58579 7.58579 7.25 8 7.25C11.6467 7.25 15.1441 8.69866 17.7227 11.2773C20.3013 13.8559 21.75 17.3533 21.75 21C21.75 21.4142 21.4142 21.75 21 21.75C20.5858 21.75 20.25 21.4142 20.25 21C20.25 17.7511 18.9594 14.6353 16.6621 12.3379C14.3647 10.0406 11.2489 8.75 8 8.75C7.58579 8.75 7.25 8.41421 7.25 8ZM7.25 13.6875C7.25 13.2733 7.58579 12.9375 8 12.9375C10.1383 12.9375 12.189 13.7869 13.701 15.299C15.2131 16.811 16.0625 18.8617 16.0625 21C16.0625 21.4142 15.7267 21.75 15.3125 21.75C14.8983 21.75 14.5625 21.4142 14.5625 21C14.5625 19.2595 13.8711 17.5903 12.6404 16.3596C11.4097 15.1289 9.74048 14.4375 8 14.4375C7.58579 14.4375 7.25 14.1017 7.25 13.6875ZM7.25 20.1875C7.25 19.3246 7.94956 18.625 8.8125 18.625C9.67544 18.625 10.375 19.3246 10.375 20.1875C10.375 21.0504 9.67544 21.75 8.8125 21.75C7.94956 21.75 7.25 21.0504 7.25 20.1875Z" fill="#4F4F4F"/>
</svg>
