<svg width="30" height="30" viewBox="0 0 30 30" fill="none" xmlns="http://www.w3.org/2000/svg">
<path fill-rule="evenodd" clip-rule="evenodd" d="M10.1154 8.15384C9.86037 8.15384 9.6158 8.25515 9.43547 8.43547C9.25515 8.6158 9.15384 8.86037 9.15384 9.11538V20.0302L11.2459 17.9382C11.3541 17.83 11.5008 17.7692 11.6538 17.7692H20.8846C21.1396 17.7692 21.3842 17.6679 21.5645 17.4876C21.7448 17.3073 21.8461 17.0627 21.8461 16.8077V9.11538C21.8461 8.86037 21.7448 8.6158 21.5645 8.43547C21.3842 8.25515 21.1396 8.15384 20.8846 8.15384H10.1154ZM8.61958 7.61958C9.01629 7.22287 9.55435 7 10.1154 7H20.8846C21.4456 7 21.9837 7.22287 22.3804 7.61958C22.7771 8.01629 23 8.55435 23 9.11538V16.8077C23 17.3687 22.7771 17.9068 22.3804 18.3035C21.9837 18.7002 21.4456 18.9231 20.8846 18.9231H11.8928L8.98487 21.831C8.81987 21.996 8.57172 22.0454 8.35614 21.9561C8.14056 21.8668 8 21.6564 8 21.4231V9.11538C8 8.55435 8.22287 8.01629 8.61958 7.61958Z" fill="#4F4F4F"/>
</svg>
