<svg width="23" height="20" viewBox="0 0 23 20" fill="none" xmlns="http://www.w3.org/2000/svg">
<path fill-rule="evenodd" clip-rule="evenodd" d="M3.29289 2.29289C3.68342 1.90237 4.31658 1.90237 4.70711 2.29289L11 8.58579L17.2929 2.29289C17.6834 1.90237 18.3166 1.90237 18.7071 2.29289C19.0976 2.68342 19.0976 3.31658 18.7071 3.70711L12.4142 10L18.7071 16.2929C19.0976 16.6834 19.0976 17.3166 18.7071 17.7071C18.3166 18.0976 17.6834 18.0976 17.2929 17.7071L11 11.4142L4.70711 17.7071C4.31658 18.0976 3.68342 18.0976 3.29289 17.7071C2.90237 17.3166 2.90237 16.6834 3.29289 16.2929L9.58579 10L3.29289 3.70711C2.90237 3.31658 2.90237 2.68342 3.29289 2.29289Z" fill="#4F4F4F"/>
</svg>
