<svg width="30" height="30" viewBox="0 0 30 30" fill="none" xmlns="http://www.w3.org/2000/svg">
<path fill-rule="evenodd" clip-rule="evenodd" d="M9.04439 7.04439C9.45697 6.63181 10.0165 6.40002 10.6 6.40002H17C17.1592 6.40002 17.3118 6.46324 17.4243 6.57576L22.2243 11.3758C22.3368 11.4883 22.4 11.6409 22.4 11.8V21.4C22.4 21.9835 22.1682 22.5431 21.7557 22.9557C21.3431 23.3682 20.7835 23.6 20.2 23.6H10.6C10.0165 23.6 9.45697 23.3682 9.04439 22.9557C8.63181 22.5431 8.40002 21.9835 8.40002 21.4V8.60002C8.40002 8.01655 8.63181 7.45697 9.04439 7.04439ZM10.6 7.60002C10.3348 7.60002 10.0805 7.70538 9.89292 7.89292C9.70538 8.08045 9.60002 8.33481 9.60002 8.60002V21.4C9.60002 21.6652 9.70538 21.9196 9.89292 22.1071C10.0805 22.2947 10.3348 22.4 10.6 22.4H20.2C20.4652 22.4 20.7196 22.2947 20.9071 22.1071C21.0947 21.9196 21.2 21.6652 21.2 21.4V12.4H17C16.6687 12.4 16.4 12.1314 16.4 11.8V7.60002H10.6ZM17.6 8.44855L20.3515 11.2H17.6V8.44855ZM11.6 12.6C11.6 12.2687 11.8687 12 12.2 12H13.8C14.1314 12 14.4 12.2687 14.4 12.6C14.4 12.9314 14.1314 13.2 13.8 13.2H12.2C11.8687 13.2 11.6 12.9314 11.6 12.6ZM11.6 15.8C11.6 15.4687 11.8687 15.2 12.2 15.2H18.6C18.9314 15.2 19.2 15.4687 19.2 15.8C19.2 16.1314 18.9314 16.4 18.6 16.4H12.2C11.8687 16.4 11.6 16.1314 11.6 15.8ZM11.6 19C11.6 18.6687 11.8687 18.4 12.2 18.4H18.6C18.9314 18.4 19.2 18.6687 19.2 19C19.2 19.3314 18.9314 19.6 18.6 19.6H12.2C11.8687 19.6 11.6 19.3314 11.6 19Z" fill="#4F4F4F"/>
</svg>
