<svg width="30" height="30" viewBox="0 0 30 30" fill="none" xmlns="http://www.w3.org/2000/svg">
<path fill-rule="evenodd" clip-rule="evenodd" d="M16.4594 7.36188C17.036 7.12297 17.654 7 18.2781 7C18.9022 7 19.5202 7.12297 20.0968 7.36188C20.6734 7.60079 21.1973 7.95096 21.6385 8.39239C22.0798 8.83357 22.4299 9.35737 22.6688 9.93387C22.9077 10.5105 23.0307 11.1285 23.0307 11.7526C23.0307 12.3767 22.9077 12.9947 22.6688 13.5713C22.4299 14.1479 22.0798 14.6717 21.6384 15.1129C21.6384 15.1129 21.6384 15.1129 21.6384 15.1129L14.9183 21.833C14.6956 22.0557 14.3346 22.0557 14.112 21.833L7.39188 15.1129C6.50068 14.2217 6 13.013 6 11.7526C6 10.4922 6.50068 9.2835 7.39188 8.39229C8.28309 7.50108 9.49183 7.00041 10.7522 7.00041C12.0125 7.00041 13.2213 7.50108 14.1125 8.39229L14.5151 8.79494L14.9177 8.39239C15.3589 7.95096 15.8828 7.60079 16.4594 7.36188ZM18.2781 8.14029C17.8038 8.14029 17.3341 8.23375 16.8959 8.41532C16.4577 8.59689 16.0595 8.86302 15.7242 9.1985L14.9183 10.0044C14.6956 10.2271 14.3346 10.2271 14.112 10.0044L13.3062 9.1986C12.6288 8.52123 11.7101 8.1407 10.7522 8.1407C9.79425 8.1407 8.87555 8.52123 8.19819 9.1986C7.52083 9.87596 7.14029 10.7947 7.14029 11.7526C7.14029 12.7105 7.52083 13.6292 8.19819 14.3066L14.5151 20.6235L20.8321 14.3066C21.1676 13.9713 21.4338 13.573 21.6154 13.1348C21.797 12.6966 21.8904 12.2269 21.8904 11.7526C21.8904 11.2783 21.797 10.8086 21.6154 10.3704C21.4338 9.93216 21.1677 9.53402 20.8322 9.19869C20.4969 8.86321 20.0985 8.59689 19.6603 8.41532C19.2221 8.23375 18.7524 8.14029 18.2781 8.14029Z" fill="#4F4F4F"/>
</svg>
