<svg width="40" height="40" viewBox="0 0 40 40" fill="none" xmlns="http://www.w3.org/2000/svg">
<path fill-rule="evenodd" clip-rule="evenodd" d="M24 28C24.5523 28 25 27.5523 25 27V25H29C29.5523 25 30 24.5523 30 24C30 23.4477 29.5523 23 29 23H25V21C25 20.4477 24.5523 20 24 20C23.4477 20 23 20.4477 23 21V23H11C10.4477 23 10 23.4477 10 24C10 24.5523 10.4477 25 11 25H23V27C23 27.5523 23.4477 28 24 28ZM16 20C16.5523 20 17 19.5523 17 19V17H29C29.5523 17 30 16.5523 30 16C30 15.4477 29.5523 15 29 15H17V13C17 12.4477 16.5523 12 16 12C15.4477 12 15 12.4477 15 13V15H11C10.4477 15 10 15.4477 10 16C10 16.5523 10.4477 17 11 17H15V19C15 19.5523 15.4477 20 16 20Z" fill="#F2F2F2"/>
</svg>
