<svg width="30" height="30" viewBox="0 0 30 30" fill="none" xmlns="http://www.w3.org/2000/svg">
<path fill-rule="evenodd" clip-rule="evenodd" d="M14.5 8.04651C10.9358 8.04651 8.04651 10.9358 8.04651 14.5C8.04651 18.0642 10.9358 20.9535 14.5 20.9535C18.0642 20.9535 20.9535 18.0642 20.9535 14.5C20.9535 10.9358 18.0642 8.04651 14.5 8.04651ZM7 14.5C7 10.3579 10.3579 7 14.5 7C18.6421 7 22 10.3579 22 14.5C22 18.6421 18.6421 22 14.5 22C10.3579 22 7 18.6421 7 14.5ZM14.7096 11.5544C14.3442 11.4917 13.9684 11.5603 13.6488 11.7482C13.3292 11.936 13.0864 12.2309 12.9634 12.5806C12.8675 12.8532 12.5687 12.9965 12.2961 12.9006C12.0235 12.8047 11.8803 12.5059 11.9762 12.2333C12.1812 11.6505 12.5859 11.159 13.1186 10.846C13.6512 10.5329 14.2775 10.4185 14.8865 10.5229C15.4955 10.6274 16.0478 10.944 16.4457 11.4166C16.8435 11.8892 17.0613 12.4873 17.0605 13.105C17.0603 14.0802 16.3357 14.7399 15.7809 15.1098C15.4876 15.3054 15.198 15.4498 14.9837 15.545C14.8759 15.593 14.7853 15.6292 14.7204 15.6539C14.6879 15.6663 14.6618 15.6758 14.643 15.6825L14.6204 15.6904L14.6135 15.6928L14.6112 15.6936L14.6103 15.6939C14.6102 15.6939 14.6097 15.6941 14.4442 15.1977L14.6097 15.6941C14.3355 15.7855 14.0392 15.6373 13.9478 15.3631C13.8565 15.0892 14.0043 14.7932 14.2779 14.7015C14.278 14.7015 14.2786 14.7013 14.2787 14.7013L14.2799 14.7008L14.2924 14.6965C14.3043 14.6923 14.3231 14.6854 14.3478 14.676C14.3974 14.6571 14.4703 14.628 14.5587 14.5887C14.7369 14.5095 14.9705 14.3923 15.2004 14.239C15.6921 13.9113 16.014 13.5245 16.014 13.1047L16.014 13.1039C16.0145 12.7332 15.8838 12.3742 15.6451 12.0906C15.4064 11.807 15.0749 11.617 14.7096 11.5544ZM13.9767 17.9884C13.9767 17.6994 14.211 17.4651 14.5 17.4651H14.507C14.796 17.4651 15.0302 17.6994 15.0302 17.9884C15.0302 18.2774 14.796 18.5116 14.507 18.5116H14.5C14.211 18.5116 13.9767 18.2774 13.9767 17.9884Z" fill="#4F4F4F"/>
</svg>
