<svg width="30" height="30" viewBox="0 0 30 30" fill="none" xmlns="http://www.w3.org/2000/svg">
<path d="M18.2 15L18.7999 15.0125C18.8 15.0042 18.8 14.9958 18.7999 14.9875L18.2 15ZM11.8 15L11.2001 14.9875C11.2 14.9958 11.2 15.0042 11.2001 15.0125L11.8 15ZM22.4 15C22.4 19.0869 19.0869 22.4 15 22.4V23.6C19.7496 23.6 23.6 19.7496 23.6 15H22.4ZM15 22.4C10.9131 22.4 7.6 19.0869 7.6 15H6.4C6.4 19.7496 10.2504 23.6 15 23.6V22.4ZM7.6 15C7.6 10.9131 10.9131 7.6 15 7.6V6.4C10.2504 6.4 6.4 10.2504 6.4 15H7.6ZM15 7.6C19.0869 7.6 22.4 10.9131 22.4 15H23.6C23.6 10.2504 19.7496 6.4 15 6.4V7.6ZM7 15.6H23V14.4H7V15.6ZM14.557 7.40465C16.4599 9.48795 17.5414 12.1915 17.6001 15.0125L18.7999 14.9875C18.735 11.8757 17.5421 8.89341 15.443 6.59535L14.557 7.40465ZM17.6001 14.9875C17.5414 17.8085 16.4599 20.5121 14.557 22.5953L15.443 23.4047C17.5421 21.1066 18.735 18.1243 18.7999 15.0125L17.6001 14.9875ZM15.443 22.5953C13.5401 20.5121 12.4586 17.8085 12.3999 14.9875L11.2001 15.0125C11.265 18.1243 12.4579 21.1066 14.557 23.4047L15.443 22.5953ZM12.3999 15.0125C12.4586 12.1915 13.5401 9.48795 15.443 7.40465L14.557 6.59535C12.4579 8.89341 11.265 11.8757 11.2001 14.9875L12.3999 15.0125Z" fill="#4F4F4F"/>
</svg>
