<svg width="20" height="20" viewBox="0 0 20 20" fill="none" xmlns="http://www.w3.org/2000/svg">
<path fill-rule="evenodd" clip-rule="evenodd" d="M15.7231 2.38462C16.0291 2.38462 16.3226 2.50618 16.539 2.72257C16.7554 2.93896 16.8769 3.23244 16.8769 3.53846V16.4615C16.8769 16.7676 16.7554 17.061 16.539 17.2774C16.3226 17.4938 16.0291 17.6154 15.7231 17.6154H12.0308C11.6484 17.6154 11.3385 17.9253 11.3385 18.3077C11.3385 18.69 11.6484 19 12.0308 19H15.7231C16.3963 19 17.042 18.7326 17.518 18.2565C17.9941 17.7804 18.2615 17.1348 18.2615 16.4615V3.53846C18.2615 2.86522 17.9941 2.21955 17.518 1.7435C17.042 1.26744 16.3963 1 15.7231 1H12.0308C11.6484 1 11.3385 1.30996 11.3385 1.69231C11.3385 2.07466 11.6484 2.38462 12.0308 2.38462H15.7231Z" fill="#4F4F4F"/>
<path fill-rule="evenodd" clip-rule="evenodd" d="M7.66431 4.89508C7.93467 4.62472 8.37302 4.62472 8.64338 4.89508L13.2588 9.51047C13.5291 9.78083 13.5291 10.2192 13.2588 10.4895L8.64338 15.1049C8.37302 15.3753 7.93467 15.3753 7.66431 15.1049C7.39395 14.8346 7.39395 14.3962 7.66431 14.1259L11.0979 10.6923H1.69231C1.30996 10.6923 1 10.3824 1 10C1 9.61765 1.30996 9.30769 1.69231 9.30769H11.0979L7.66431 5.87415C7.39395 5.60379 7.39395 5.16544 7.66431 4.89508Z" fill="#4F4F4F"/>
</svg>
