<svg width="30" height="30" viewBox="0 0 30 30" fill="none" xmlns="http://www.w3.org/2000/svg">
<path fill-rule="evenodd" clip-rule="evenodd" d="M9.11538 8.15385C8.86037 8.15385 8.6158 8.25515 8.43547 8.43547C8.25515 8.6158 8.15385 8.86037 8.15385 9.11538V19.8846C8.15385 20.1396 8.25515 20.3842 8.43547 20.5645C8.6158 20.7448 8.86037 20.8462 9.11538 20.8462H12.1923C12.5109 20.8462 12.7692 21.1045 12.7692 21.4231C12.7692 21.7417 12.5109 22 12.1923 22H9.11538C8.55435 22 8.01629 21.7771 7.61958 21.3804C7.22287 20.9837 7 20.4457 7 19.8846V9.11538C7 8.55435 7.22287 8.01629 7.61958 7.61958C8.01629 7.22287 8.55435 7 9.11538 7H12.1923C12.5109 7 12.7692 7.2583 12.7692 7.57692C12.7692 7.89555 12.5109 8.15385 12.1923 8.15385H9.11538ZM17.169 10.2459C17.3943 10.0206 17.7596 10.0206 17.9849 10.2459L21.831 14.0921C22.0563 14.3174 22.0563 14.6826 21.831 14.9079L17.9849 18.7541C17.7596 18.9794 17.3943 18.9794 17.169 18.7541C16.9437 18.5288 16.9437 18.1635 17.169 17.9382L20.0303 15.0769H12.1923C11.8737 15.0769 11.6154 14.8186 11.6154 14.5C11.6154 14.1814 11.8737 13.9231 12.1923 13.9231H20.0303L17.169 11.0618C16.9437 10.8365 16.9437 10.4712 17.169 10.2459Z" fill="#4F4F4F"/>
</svg>
