<svg width="23" height="20" viewBox="0 0 23 20" fill="none" xmlns="http://www.w3.org/2000/svg">
<path d="M0 10C0 9.44772 0.447715 9 1 9H17C17.5523 9 18 9.44772 18 10C18 10.5523 17.5523 11 17 11H1C0.447715 11 0 10.5523 0 10Z" fill="#4F4F4F"/>
<path d="M0 4C0 3.44772 0.447715 3 1 3H22C22.5523 3 23 3.44772 23 4C23 4.55228 22.5523 5 22 5H1C0.447715 5 0 4.55228 0 4Z" fill="#4F4F4F"/>
<path d="M0 16C0 15.4477 0.447715 15 1 15H22C22.5523 15 23 15.4477 23 16C23 16.5523 22.5523 17 22 17H1C0.447715 17 0 16.5523 0 16Z" fill="#4F4F4F"/>
</svg>
