<svg width="20" height="20" viewBox="0 0 20 20" fill="none" xmlns="http://www.w3.org/2000/svg">
<path fill-rule="evenodd" clip-rule="evenodd" d="M6.13275 2.67775C7.207 1.6035 8.66399 1 10.1832 1C11.7024 1 13.1594 1.6035 14.2336 2.67775C15.3079 3.75199 15.9114 5.20898 15.9114 6.7282C15.9114 9.47172 16.4982 11.1754 17.0389 12.1668C17.3105 12.6646 17.5748 12.9911 17.7585 13.185C17.8505 13.2822 17.9229 13.3466 17.9664 13.3829C17.9882 13.401 18.0028 13.4122 18.0091 13.4168C18.0101 13.4176 18.0109 13.4181 18.0114 13.4186C18.3048 13.6201 18.4346 13.9887 18.3312 14.3302C18.2267 14.6753 17.9086 14.9113 17.548 14.9113H2.81838C2.45777 14.9113 2.13967 14.6753 2.03518 14.3302C1.93179 13.9887 2.0616 13.6201 2.35496 13.4186C2.35553 13.4182 2.35631 13.4176 2.3573 13.4168C2.3636 13.4122 2.37821 13.401 2.39999 13.3829C2.44354 13.3466 2.51586 13.2822 2.6079 13.185C2.79156 12.9911 3.05594 12.6646 3.32745 12.1668C3.86822 11.1754 4.455 9.47172 4.455 6.7282C4.455 5.20898 5.05851 3.75199 6.13275 2.67775ZM2.36323 13.413C2.36329 13.4129 2.36336 13.4129 2.36342 13.4128C2.36342 13.4128 2.36342 13.4128 2.36341 13.4128L2.36323 13.413ZM4.5772 13.2747H15.7892C15.7269 13.1727 15.6644 13.0647 15.6022 12.9505C14.9155 11.6916 14.2748 9.71286 14.2748 6.7282C14.2748 5.64304 13.8437 4.60234 13.0764 3.83502C12.3091 3.0677 11.2684 2.63663 10.1832 2.63663C9.09805 2.63663 8.05734 3.0677 7.29002 3.83502C6.52271 4.60234 6.09163 5.64304 6.09163 6.7282C6.09163 9.71286 5.45095 11.6916 4.76424 12.9505C4.70197 13.0647 4.63946 13.1727 4.5772 13.2747ZM8.35691 16.6584C8.74784 16.4317 9.24859 16.5647 9.47536 16.9557C9.54729 17.0797 9.65054 17.1826 9.77477 17.2542C9.899 17.3257 10.0398 17.3634 10.1832 17.3634C10.3266 17.3634 10.4674 17.3257 10.5916 17.2542C10.7159 17.1826 10.8191 17.0797 10.891 16.9557C11.1178 16.5647 11.6186 16.4317 12.0095 16.6584C12.4004 16.8852 12.5335 17.386 12.3067 17.7769C12.0909 18.1489 11.7812 18.4577 11.4085 18.6724C11.0358 18.887 10.6133 19 10.1832 19C9.75312 19 9.33059 18.887 8.95791 18.6724C8.58523 18.4577 8.27548 18.1489 8.05968 17.7769C7.8329 17.386 7.96598 16.8852 8.35691 16.6584Z" fill="#2B2B2B"/>
<path d="M6.45044 5.05249C10.6243 5.51691 13.8859 9.00367 13.997 13.2746H4.57715C4.63941 13.1726 4.70192 13.0646 4.76419 12.9505C5.4509 11.6915 6.09158 9.71281 6.09158 6.72814C6.09158 6.1449 6.21611 5.5745 6.45044 5.05249Z" fill="#FCC32D"/>
</svg>
