<svg width="30" height="30" viewBox="0 0 30 30" fill="none" xmlns="http://www.w3.org/2000/svg">
<path d="M12.9293 16.4535C12.973 16.1251 12.742 15.8234 12.4135 15.7798C12.0851 15.7361 11.7834 15.9671 11.7398 16.2955L12.9293 16.4535ZM11.4545 23L10.8598 22.921C10.8294 23.1494 10.9326 23.375 11.1251 23.5015C11.3177 23.628 11.5657 23.633 11.7632 23.5145L11.4545 23ZM15.0909 20.8182L15.3996 20.3037C15.2096 20.1897 14.9722 20.1897 14.7822 20.3037L15.0909 20.8182ZM18.7273 23L18.4186 23.5145C18.6161 23.633 18.8641 23.628 19.0567 23.5015C19.2492 23.375 19.3524 23.1495 19.3221 22.9211L18.7273 23ZM18.4421 16.2884C18.3985 15.9599 18.0969 15.7289 17.7684 15.7725C17.4399 15.8161 17.2089 16.1177 17.2525 16.4462L18.4421 16.2884ZM19.5818 12.0909C19.5818 14.5712 17.5712 16.5818 15.0909 16.5818V17.7818C18.2339 17.7818 20.7818 15.2339 20.7818 12.0909H19.5818ZM15.0909 16.5818C12.6106 16.5818 10.6 14.5712 10.6 12.0909H9.4C9.4 15.2339 11.9479 17.7818 15.0909 17.7818V16.5818ZM10.6 12.0909C10.6 9.61065 12.6106 7.6 15.0909 7.6V6.4C11.9479 6.4 9.4 8.94791 9.4 12.0909H10.6ZM15.0909 7.6C17.5712 7.6 19.5818 9.61065 19.5818 12.0909H20.7818C20.7818 8.94791 18.2339 6.4 15.0909 6.4V7.6ZM11.7398 16.2955L10.8598 22.921L12.0493 23.079L12.9293 16.4535L11.7398 16.2955ZM11.7632 23.5145L15.3996 21.3327L14.7822 20.3037L11.1458 22.4855L11.7632 23.5145ZM14.7822 21.3327L18.4186 23.5145L19.036 22.4855L15.3996 20.3037L14.7822 21.3327ZM19.3221 22.9211L18.4421 16.2884L17.2525 16.4462L18.1325 23.0789L19.3221 22.9211Z" fill="#4F4F4F"/>
</svg>
