<svg width="30" height="30" viewBox="0 0 30 30" fill="none" xmlns="http://www.w3.org/2000/svg">
<path fill-rule="evenodd" clip-rule="evenodd" d="M9.78571 8.28571C8.95729 8.28571 8.28571 8.95729 8.28571 9.78571C8.28571 10.6141 8.95729 11.2857 9.78571 11.2857C10.6141 11.2857 11.2857 10.6141 11.2857 9.78571C11.2857 8.95729 10.6141 8.28571 9.78571 8.28571ZM7 9.78571C7 8.24721 8.24721 7 9.78571 7C11.3242 7 12.5714 8.24721 12.5714 9.78571C12.5714 11.3242 11.3242 12.5714 9.78571 12.5714C8.24721 12.5714 7 11.3242 7 9.78571ZM20.9546 8.04543C21.2056 8.29648 21.2056 8.70352 20.9546 8.95457L8.95457 20.9546C8.70352 21.2056 8.29648 21.2056 8.04543 20.9546C7.79438 20.7035 7.79438 20.2965 8.04543 20.0454L20.0454 8.04543C20.2965 7.79438 20.7035 7.79438 20.9546 8.04543ZM19.2143 17.7143C18.3859 17.7143 17.7143 18.3859 17.7143 19.2143C17.7143 20.0427 18.3859 20.7143 19.2143 20.7143C20.0427 20.7143 20.7143 20.0427 20.7143 19.2143C20.7143 18.3859 20.0427 17.7143 19.2143 17.7143ZM16.4286 19.2143C16.4286 17.6758 17.6758 16.4286 19.2143 16.4286C20.7528 16.4286 22 17.6758 22 19.2143C22 20.7528 20.7528 22 19.2143 22C17.6758 22 16.4286 20.7528 16.4286 19.2143Z" fill="#4F4F4F"/>
</svg>
