<svg width="30" height="30" viewBox="0 0 30 30" fill="none" xmlns="http://www.w3.org/2000/svg">
<path fill-rule="evenodd" clip-rule="evenodd" d="M7.2273 8.60002C6.60472 8.60002 6.10002 9.10472 6.10002 9.7273V12.5818H23.9V9.7273C23.9 9.10472 23.3953 8.60002 22.7728 8.60002H7.2273ZM25.1 9.7273C25.1 8.44198 24.0581 7.40002 22.7728 7.40002H7.2273C5.94198 7.40002 4.90002 8.44198 4.90002 9.7273V20.0909C4.90002 21.3763 5.94198 22.4182 7.2273 22.4182H22.7728C24.0581 22.4182 25.1 21.3763 25.1 20.0909V9.7273ZM23.9 13.7818H6.10002V20.0909C6.10002 20.7135 6.60472 21.2182 7.2273 21.2182H22.7728C23.3953 21.2182 23.9 20.7135 23.9 20.0909V13.7818Z" fill="#4F4F4F"/>
</svg>
