<svg width="20" height="20" viewBox="0 0 20 20" fill="none" xmlns="http://www.w3.org/2000/svg">
<path d="M8.3833 14.7666C9.76953 14.7666 11.0479 14.3184 12.0938 13.5713L16.0283 17.5059C16.2109 17.6885 16.4517 17.7798 16.709 17.7798C17.2485 17.7798 17.6304 17.3647 17.6304 16.8335C17.6304 16.5845 17.5474 16.3438 17.3647 16.1694L13.4551 12.2515C14.2769 11.1724 14.7666 9.83594 14.7666 8.3833C14.7666 4.87207 11.8945 2 8.3833 2C4.88037 2 2 4.86377 2 8.3833C2 11.8945 4.87207 14.7666 8.3833 14.7666ZM8.3833 13.3887C5.64404 13.3887 3.37793 11.1226 3.37793 8.3833C3.37793 5.64404 5.64404 3.37793 8.3833 3.37793C11.1226 3.37793 13.3887 5.64404 13.3887 8.3833C13.3887 11.1226 11.1226 13.3887 8.3833 13.3887Z" fill="#4F4F4F"/>
</svg>
