<svg width="30" height="30" viewBox="0 0 30 30" fill="none" xmlns="http://www.w3.org/2000/svg">
<path fill-rule="evenodd" clip-rule="evenodd" d="M7.5 8.05814C7.5 7.74989 7.74989 7.5 8.05814 7.5H15.8236C15.9716 7.5 16.1136 7.5588 16.2183 7.66348L22.89 14.3352C23.2832 14.7307 23.5039 15.2658 23.5039 15.8236C23.5039 16.3814 23.2832 16.9164 22.89 17.312L22.8888 17.3132L17.3212 22.8808C17.1251 23.0771 16.8923 23.2328 16.636 23.3391C16.3797 23.4453 16.1049 23.5 15.8275 23.5C15.55 23.5 15.2753 23.4453 15.019 23.3391C14.7627 23.2328 14.5299 23.0771 14.3338 22.8808L7.66371 16.2185C7.55889 16.1138 7.5 15.9717 7.5 15.8236V8.05814ZM8.61628 8.61628V15.5922L15.1231 22.0915C15.2155 22.184 15.3257 22.2578 15.4465 22.3079C15.5673 22.3579 15.6967 22.3837 15.8275 22.3837C15.9582 22.3837 16.0877 22.3579 16.2085 22.3079C16.3293 22.2578 16.439 22.1844 16.5314 22.0919L22.0983 16.525C22.2833 16.3387 22.3876 16.0863 22.3876 15.8236C22.3876 15.561 22.2838 15.309 22.0988 15.1226L15.5924 8.61628H8.61628Z" fill="#4F4F4F"/>
<path d="M12.7093 11.7791C12.7093 12.2928 12.2928 12.7093 11.7791 12.7093C11.2653 12.7093 10.8488 12.2928 10.8488 11.7791C10.8488 11.2653 11.2653 10.8488 11.7791 10.8488C12.2928 10.8488 12.7093 11.2653 12.7093 11.7791Z" fill="#4F4F4F"/>
</svg>
