<svg width="20" height="20" viewBox="0 0 20 20" fill="none" xmlns="http://www.w3.org/2000/svg">
<path fill-rule="evenodd" clip-rule="evenodd" d="M10.132 1C8.19864 1 6.61989 2.51906 6.52424 4.42863H4.65838C4.3113 4.42863 4.02551 4.69818 4.00046 5.04044L3 16.4136L3.001 16.4756C3.08225 17.9411 4.33092 19.0663 5.79595 18.997H14.4738C15.9357 19.0662 17.1788 17.9461 17.2652 16.4858C17.2701 16.4525 17.2692 16.4188 17.2625 16.3857L17.249 16.318L16.2634 5.04018C16.235 4.69642 15.9503 4.42863 15.6055 4.42863H13.7397C13.644 2.51906 12.0653 1 10.132 1ZM7.85558 4.43154H12.4083C12.2976 3.26507 11.3231 2.35426 10.132 2.34322C8.94076 2.35426 7.96633 3.26507 7.85558 4.43154ZM13.7443 7.10899C13.7321 7.47639 13.4217 7.76229 13.0554 7.74673C12.6896 7.73413 12.4049 7.42586 12.4185 7.06135V5.76892H7.83955V7.1119C7.82744 7.4793 7.51699 7.7652 7.15069 7.74965C6.7849 7.73704 6.50016 7.42877 6.51382 7.06427V5.77184H5.26079L4.3274 16.4857C4.41778 17.1992 5.0538 17.7158 5.77375 17.6573L5.78118 17.6567H14.4818L14.4883 17.6571C15.203 17.708 15.8379 17.1939 15.9364 16.4789L14.9974 5.76601H13.7443V7.10899Z" fill="#2B2B2B"/>
</svg>
