<svg width="60" height="28" viewBox="0 0 60 28" fill="none" xmlns="http://www.w3.org/2000/svg">
<g clip-path="url(#clip0_12_2427)">
<path d="M1.87562 22.7353V23.1405H3.23085V23.8369H1.89401V27.8103H1.04998V23.8369H0.259277V23.1405H1.04998V22.7261C1.04998 21.8179 1.59612 21.2192 2.58909 21.2192C2.94951 21.2192 3.30257 21.3076 3.53978 21.4919L3.28418 22.1348C3.10765 22.0021 2.87963 21.9137 2.63322 21.9137C2.13122 21.9155 1.87562 22.1974 1.87562 22.7353Z" fill="white"/>
<path d="M3.52876 25.4763C3.52876 24.0837 4.55852 23.0982 5.95604 23.0982C7.35541 23.0982 8.37413 24.0855 8.37413 25.4763C8.37413 26.869 7.35357 27.8637 5.95604 27.8637C4.55852 27.8637 3.52876 26.869 3.52876 25.4763ZM7.52274 25.4763C7.52274 24.4816 6.8534 23.8369 5.95788 23.8369C5.06052 23.8369 4.38383 24.4798 4.38383 25.4763C4.38383 26.4711 5.06052 27.125 5.95788 27.125C6.8534 27.1232 7.52274 26.4711 7.52274 25.4763Z" fill="white"/>
<path d="M9.11518 25.4763C9.11518 24.0837 10.1449 23.0982 11.5425 23.0982C12.9418 23.0982 13.9605 24.0855 13.9605 25.4763C13.9605 26.869 12.94 27.8637 11.5425 27.8637C10.1431 27.8637 9.11518 26.869 9.11518 25.4763ZM13.1073 25.4763C13.1073 24.4816 12.438 23.8369 11.5425 23.8369C10.6451 23.8369 9.96841 24.4798 9.96841 25.4763C9.96841 26.4711 10.6451 27.125 11.5425 27.125C12.4398 27.1232 13.1073 26.4711 13.1073 25.4763Z" fill="white"/>
<path d="M19.5286 21.2726V27.8103H18.7195V27.0698C18.3407 27.5984 17.7431 27.8619 17.0572 27.8619C15.6927 27.8619 14.6998 26.9021 14.6998 25.4745C14.6998 24.0469 15.6927 23.0963 17.0572 23.0963C17.7173 23.0963 18.2965 23.3432 18.6845 23.8461V21.2726H19.5286ZM18.6937 25.4763C18.6937 24.4816 18.017 23.8369 17.127 23.8369C16.2297 23.8369 15.553 24.4798 15.553 25.4763C15.553 26.4711 16.2297 27.125 17.127 27.125C18.0152 27.1232 18.6937 26.4711 18.6937 25.4763Z" fill="white"/>
<path d="M23.346 21.6963C23.346 21.3887 23.5924 21.1419 23.9179 21.1419C24.2434 21.1419 24.4898 21.3795 24.4898 21.6798C24.4898 21.9966 24.2526 22.2434 23.9179 22.2434C23.5924 22.2416 23.346 22.004 23.346 21.6963ZM23.495 23.1405H24.339V27.8103H23.495V23.1405Z" fill="white"/>
<path d="M30.3741 25.1245V27.8121H29.5301V25.2221C29.5301 24.3066 29.0722 23.8571 28.2723 23.8571C27.3749 23.8571 26.7939 24.395 26.7939 25.4082V27.814H25.9498V23.1442H26.7589V23.8498C27.1028 23.3745 27.7004 23.1 28.4396 23.1C29.5724 23.0963 30.3741 23.7484 30.3741 25.1245Z" fill="white"/>
<path d="M36.9259 27.5376C36.6703 27.7587 36.2841 27.8637 35.9053 27.8637C34.9639 27.8637 34.4269 27.3442 34.4269 26.4011V23.8369H33.6362V23.1405H34.4269V22.1182H35.2709V23.1405H36.6078V23.8369H35.2709V26.3661C35.2709 26.869 35.5339 27.1508 36.001 27.1508C36.2474 27.1508 36.4846 27.0716 36.6611 26.9298L36.9259 27.5376Z" fill="white"/>
<path d="M37.358 25.4763C37.358 24.0837 38.3878 23.0982 39.7853 23.0982C41.1847 23.0982 42.2034 24.0855 42.2034 25.4763C42.2034 26.869 41.1828 27.8637 39.7853 27.8637C38.386 27.8637 37.358 26.869 37.358 25.4763ZM41.3502 25.4763C41.3502 24.4816 40.6808 23.8369 39.7835 23.8369C38.8861 23.8369 38.2094 24.4798 38.2094 25.4763C38.2094 26.4711 38.8861 27.125 39.7835 27.125C40.6827 27.1232 41.3502 26.4711 41.3502 25.4763Z" fill="white"/>
<path d="M47.7181 27.8103H46.9182V27.1048C46.5743 27.5892 45.9951 27.8619 45.335 27.8619C44.1305 27.8619 43.3288 27.2005 43.3288 25.8263V23.1387H44.1728V25.7287C44.1728 26.6461 44.6307 27.1029 45.4306 27.1029C46.3095 27.1029 46.8722 26.5558 46.8722 25.5519V23.1369H47.7181V27.8103Z" fill="white"/>
<path d="M48.8968 25.4763C48.8968 24.0837 49.9266 23.0982 51.359 23.0982C52.1939 23.0982 52.8889 23.4426 53.2586 24.0929L52.6168 24.5074C52.3171 24.0487 51.861 23.8369 51.3498 23.8369C50.4359 23.8369 49.7482 24.4798 49.7482 25.4763C49.7482 26.4895 50.4341 27.125 51.3498 27.125C51.8592 27.125 52.3171 26.9132 52.6168 26.4545L53.2586 26.8598C52.8889 27.5119 52.1939 27.8637 51.359 27.8637C49.9266 27.8637 48.8968 26.869 48.8968 25.4763Z" fill="white"/>
<path d="M58.7144 25.1245V27.8121H57.8704V25.2221C57.8704 24.3066 57.4125 23.8571 56.6126 23.8571C55.7153 23.8571 55.1342 24.395 55.1342 25.4082V27.814H54.2901V21.2763H55.1342V23.8055C55.4854 23.3561 56.0665 23.1 56.7799 23.1C57.9127 23.0963 58.7144 23.7484 58.7144 25.1245Z" fill="white"/>
<path fill-rule="evenodd" clip-rule="evenodd" d="M57.8502 13.9245C57.3996 14.3297 56.7377 14.5342 55.8605 14.5361L55.9911 14.5434C56.311 14.5711 56.6567 14.549 57.0319 14.4808C57.4842 14.4071 57.8023 14.2819 57.9862 14.1069C58.0157 14.0884 58.0414 14.0811 58.0598 14.0811C58.1867 14.0884 58.2841 14.2726 58.3522 14.6374C58.4055 14.9137 58.4276 15.144 58.4184 15.3282C58.3797 16.0669 57.9421 16.415 57.1073 16.3708C56.7487 16.3524 56.2173 16.2547 55.5167 16.0816C54.8161 15.9084 54.2846 15.8108 53.9261 15.7924C53.4792 15.7684 53.2475 15.9324 53.2291 16.2824C53.2015 16.7982 53.6466 17.2163 54.5641 17.5387C55.2132 17.7782 55.8826 17.9163 56.5722 17.9532C57.4658 18.0011 58.0598 17.9679 58.3577 17.8574C58.3632 17.9458 58.3632 18.0195 58.3614 18.0766C58.3264 18.7287 57.8906 19.1634 57.0521 19.3826C56.3405 19.5798 55.0919 19.6387 53.3045 19.565L53.2163 19.5595C52.5947 19.5263 52.1828 19.5098 51.9787 19.5079C51.5117 19.5024 51.1016 19.5208 50.7504 19.5595C50.5242 19.5871 50.3421 19.6405 50.2024 19.7197C50.1822 19.729 50.1012 19.7879 49.9597 19.8966C49.8181 20.0053 49.728 20.0605 49.6875 20.0569C49.4742 20.0458 49.3271 19.7013 49.2462 19.0234C49.1929 18.5519 49.1782 18.0987 49.2021 17.6603C49.2223 17.2716 49.3841 17.0855 49.6838 17.1003C49.7997 17.1058 50.298 17.1721 51.177 17.2974C52.2968 17.454 53.1813 17.5737 53.8304 17.6566C52.6517 17.1169 52.0155 16.5274 51.9235 15.8882C51.8868 15.6726 51.8721 15.4719 51.8831 15.2858C51.907 14.829 52.0651 14.479 52.3538 14.2358C52.6444 13.9926 53.0177 13.884 53.4737 13.9079C53.619 13.9153 53.9665 13.9779 54.5145 14.094C54.9466 14.1953 55.3475 14.2561 55.7171 14.2745C56.5391 14.3224 57.2507 14.2045 57.8502 13.9245ZM58.2437 6.96869C58.251 6.81396 58.2804 6.73659 58.3283 6.73843C58.4441 6.74396 58.5636 6.88764 58.685 7.16764C58.7825 7.37764 58.8486 7.56369 58.8836 7.7258C58.9185 7.8879 58.9314 8.04817 58.924 8.2029C58.9148 8.3779 58.8799 8.49764 58.8174 8.56212C58.5581 8.85133 57.8226 9.04659 56.6108 9.1479C58.1333 9.60843 58.8781 10.1703 58.8431 10.8316C58.8156 11.3566 58.5158 11.7803 57.9439 12.1008C57.5026 12.3495 56.973 12.5079 56.357 12.5724C56.3772 12.5742 56.4876 12.5834 56.6917 12.6055C57.1367 12.6479 57.5431 12.5742 57.9072 12.3845C58.2731 12.1947 58.5066 11.9405 58.6114 11.6255C58.6041 12.1229 58.3871 12.4711 57.9568 12.6737C57.6166 12.8413 56.9565 12.8984 55.9764 12.8469C55.7539 12.8358 55.4192 12.8026 54.9742 12.7492C54.5292 12.6958 54.2 12.6645 53.9867 12.6534C53.4424 12.624 53.0452 12.7013 52.7915 12.8819C52.7418 12.9187 52.6959 12.9353 52.6572 12.9334C52.4531 12.9224 52.2803 12.6884 52.1387 12.2334C52.0118 11.8558 51.9566 11.5463 51.9695 11.3032C52.0008 10.71 52.4531 10.4374 53.3266 10.4834C53.6079 10.4982 54.029 10.5516 54.588 10.6455C55.147 10.7395 55.5681 10.7929 55.8495 10.8076C56.6935 10.8519 57.1275 10.6658 57.1496 10.2476C57.1624 10.0045 56.8149 9.80001 56.1088 9.63606C55.7153 9.54764 55.0478 9.44817 54.1136 9.33948C53.3836 9.26212 53.0048 9.19212 52.979 9.13317C52.6664 9.10738 52.455 9.0558 52.3428 8.98211C52.181 8.87527 52.1074 8.67633 52.124 8.38527C52.135 8.16238 52.249 7.75343 52.466 7.16027C52.5138 7.04606 53.0158 7.01475 53.9812 7.06448C54.1982 7.07554 54.5182 7.09764 54.9466 7.1308C55.3769 7.1529 55.6969 7.17133 55.912 7.18238C57.4548 7.26343 58.2326 7.19159 58.2437 6.96869ZM53.9132 3.59396C52.9643 3.14448 52.512 2.48132 52.558 1.60632C52.6168 0.508429 53.5178 0.00369051 55.2666 0.0976379C55.8293 0.127112 56.4177 0.235795 57.03 0.425532C57.7674 0.65948 58.2878 0.945008 58.5912 1.28396C58.9222 1.64317 59.0656 2.26396 59.0178 3.15001C58.9939 3.58843 58.9443 3.80396 58.867 3.80027C58.8578 3.78001 58.8376 3.71185 58.8045 3.59211C58.7567 3.37475 58.6795 3.18132 58.5728 3.01001C58.3319 2.60659 57.9421 2.32843 57.4052 2.17369C58.1241 2.56238 58.468 3.06343 58.4349 3.67685C58.4312 3.7358 58.422 3.79843 58.4036 3.86475C58.3853 3.9329 58.3724 3.96606 58.3614 3.96422C58.3522 3.96422 58.3466 3.95317 58.3485 3.93475C58.3338 3.83711 58.2988 3.6879 58.24 3.4908C58.0653 3.11132 57.6975 2.79448 57.1367 2.54027C56.6715 2.33027 56.1897 2.21238 55.695 2.18659C55.3659 2.16817 55.0606 2.20685 54.783 2.29896C54.406 2.42606 54.2111 2.63422 54.1945 2.92527C54.1835 3.12053 54.3306 3.30843 54.6322 3.48896C54.8583 3.6179 55.0974 3.70817 55.3475 3.76159C55.3567 3.76159 55.7097 3.80027 56.4067 3.8758C57.3555 3.98448 58.0083 4.04896 58.3669 4.06738C58.639 4.08211 58.8064 4.07659 58.8707 4.0508C58.9351 4.02501 58.9682 4.01211 58.9682 4.01211C59.0068 4.01396 59.0233 4.05817 59.0197 4.14659C59.005 4.43764 58.8781 4.71396 58.6409 4.97554C58.4036 5.23527 58.1389 5.39738 57.8483 5.46001C57.5578 5.52264 56.9013 5.57606 55.8771 5.61843C55.1158 5.64606 53.6024 5.64975 51.3351 5.6258C50.9949 5.62764 50.6805 5.70869 50.3955 5.86896C50.1104 6.02922 49.9854 6.11027 50.024 6.11211C49.9174 6.10659 49.8438 5.93711 49.8034 5.60369C49.7776 5.3679 49.7684 5.14869 49.7794 4.94422C49.8236 4.09869 50.0553 3.60317 50.4709 3.45948C50.6492 3.39132 51.0795 3.37475 51.7581 3.40975C52.2858 3.43553 53.003 3.49817 53.9132 3.59396Z" fill="white"/>
<path fill-rule="evenodd" clip-rule="evenodd" d="M15.2975 3.21816C15.4574 5.69947 15.6064 8.19553 15.748 10.7026C16.0128 14.3997 16.4026 16.6508 16.9156 17.4447C16.969 17.5203 16.9947 17.5866 16.9947 17.6437C16.9947 17.9126 16.7023 18.13 16.1194 18.3013C15.6781 18.4339 15.2791 18.5003 14.926 18.5003C14.0415 18.5003 13.409 18.2829 13.0302 17.8482C12.6495 17.4134 12.4601 16.7226 12.4601 15.7776C12.4601 14.6816 12.5576 13.2245 12.7525 11.41C12.9823 9.23447 13.1147 7.77921 13.1497 7.04237C12.1769 8.80158 11.5058 10.0487 11.1343 10.7874C10.1616 12.6589 9.59519 13.9171 9.43705 14.56C9.36717 14.8621 9.24213 15.0132 9.0656 15.0132C8.97734 15.0132 8.87068 14.9763 8.74748 14.8989C8.4643 14.8989 8.14618 14.6724 7.79312 14.2174C7.5982 13.9724 7.13849 13.1397 6.41398 11.7213C5.95427 10.8132 5.22976 9.45184 4.23862 7.63737C4.83993 11.2866 5.13966 14.1142 5.13966 16.1184C5.13966 16.5716 5.11392 16.8939 5.06059 17.0837C4.81235 18.0287 3.98119 18.5021 2.56711 18.5021C2.16073 18.5021 1.70101 18.4358 1.18797 18.3032C0.480013 18.1337 0.126953 17.8961 0.126953 17.5939C0.126953 17.5571 0.145341 17.5 0.180279 17.4245C0.674929 16.6876 1.06477 15.2121 1.34795 12.9997C1.55942 11.2792 1.66607 9.69131 1.66607 8.23421C1.66607 6.57079 1.47115 4.97184 1.08315 3.44105C0.959951 3.38395 0.840426 3.32684 0.724578 3.27158C0.608731 3.21447 0.551727 3.08184 0.551727 2.87368C0.551727 2.32474 0.785262 1.82 1.25417 1.35579C1.72307 0.891579 2.21405 0.661316 2.72709 0.661316C3.16841 0.661316 3.48286 0.703685 3.66858 0.788421C3.85431 0.873158 4.07129 1.09605 4.31769 1.45526C4.37102 1.51237 4.77741 2.30632 5.53869 3.83711C6.54638 5.85974 7.43086 7.64842 8.19031 9.19763C8.63163 7.67605 9.17225 6.16184 9.8085 4.65868C10.7629 2.4279 11.5848 1.19368 12.2744 0.943158C12.7874 0.753421 13.3795 0.659474 14.0507 0.659474C15.4299 0.659474 16.1194 0.991053 16.1194 1.65789C16.1194 1.785 15.8454 2.30447 15.2975 3.21816ZM2.37955 9.33579C2.41449 8.65421 2.43288 8.03158 2.43288 7.46421C2.43288 6.23553 2.35381 5.23342 2.19383 4.45789C1.89409 4.08026 1.61826 3.80579 1.37185 3.63447C1.93823 5.08974 2.2729 6.99079 2.37955 9.33579ZM22.5112 13.2503C22.5462 15.7647 23.3332 17.0229 24.8723 17.0229C25.5435 17.0229 26.1632 16.7779 26.7296 16.2861C27.0293 16.0411 27.489 15.5197 28.1087 14.7258C28.1271 14.6871 28.162 14.6503 28.2153 14.6116C28.2852 14.6116 28.322 14.7534 28.322 15.0371C28.322 15.4718 28.1804 15.9453 27.8972 16.4555C27.0127 18.025 25.5637 18.8282 23.5465 18.8668L23.2541 18.8945C19.9644 18.9516 18.3205 16.7392 18.3205 12.2574C18.3205 11.2921 18.4272 10.3471 18.6386 9.42053C18.9034 8.26737 19.2749 7.4071 19.753 6.83974C19.9828 6.59474 20.3009 6.41421 20.7073 6.3C21.0604 6.20605 21.4153 6.11947 21.7683 6.04395C21.9633 5.96842 22.1049 5.92974 22.1931 5.92974C22.263 5.92974 22.3163 5.92974 22.3531 5.92974C22.5296 5.87263 22.8569 5.845 23.335 5.845C23.6532 5.845 23.9621 5.87263 24.2637 5.92974C24.705 5.72158 25.0323 5.61842 25.2456 5.61842C26.0584 5.61842 26.7627 5.96289 27.3548 6.64816C27.9469 7.33895 28.2429 8.11447 28.2429 8.97842C28.2429 11.1668 26.8638 12.6847 24.1055 13.5303C23.6991 13.6629 23.3277 13.7292 22.9912 13.7292C22.868 13.7292 22.7521 13.72 22.6455 13.7016C23.918 13.5321 24.8208 12.9647 25.3504 11.9995L25.3247 12.0271C24.4917 12.7676 23.5557 13.1747 22.5112 13.2503ZM22.5112 12.7382C24.2085 12.2647 25.058 10.9605 25.058 8.82368C25.058 8.06658 24.6517 7.5471 23.837 7.26342C23.0059 8.645 22.5646 10.4705 22.5112 12.7382ZM41.3833 17.1924C41.6224 17.1924 41.7419 17.2679 41.7419 17.4189C41.7419 17.8168 41.4146 18.1945 40.76 18.5537C40.1771 18.8761 39.6806 19.0363 39.2742 19.0363C39.0793 19.0363 38.8935 19.0087 38.717 18.9516C37.8325 18.7066 37.2312 16.8055 36.9131 13.2503C35.499 16.8626 34.164 18.6495 32.9081 18.6108H32.8548C31.8287 18.5721 31.1134 18.4303 30.707 18.1853C30.2289 17.8629 29.885 17.22 29.6717 16.2566C29.5651 15.7647 29.5136 15.1974 29.5136 14.5545C29.5136 13.23 29.7177 11.7471 30.1241 10.1021C30.6371 8.11632 31.2642 6.84895 32.0071 6.30184C32.6617 5.81 33.5186 5.565 34.5796 5.565C34.9161 5.565 35.4291 5.63132 36.1187 5.76395C36.9848 5.915 37.4188 6.08632 37.4188 6.27421C37.4188 6.29263 37.393 6.31289 37.3397 6.33132C36.2971 6.69053 35.3593 7.68342 34.5281 9.31C33.7668 10.8039 33.388 12.1837 33.388 13.4511C33.388 13.8489 33.4579 14.245 33.5995 14.6429C33.776 15.1532 34.0151 15.4092 34.3148 15.4092C34.9161 15.4092 35.6241 13.9724 36.4368 11.0968C36.5435 10.8132 36.6575 10.4153 36.7825 9.905C36.7642 9.5071 36.8175 8.95079 36.9425 8.23053C37.3838 7.09579 38.2334 6.52842 39.4893 6.52842C39.8074 6.52842 40.0649 6.5671 40.258 6.64263C40.4529 6.71816 40.5669 7.75895 40.6037 9.76316C40.6221 10.9347 40.6386 12.1174 40.657 13.3092C40.657 13.9705 40.7195 14.945 40.8427 16.2308C40.9641 16.8718 41.1443 17.1924 41.3833 17.1924ZM32.5109 13.5045C32.5109 14.0534 32.6433 14.5453 32.9081 14.98C33.1913 15.5087 33.5627 15.7739 34.0224 15.7739C34.1107 15.7739 34.199 15.7647 34.2872 15.7463C33.8624 15.7095 33.5259 15.3595 33.2795 14.6963C33.0846 14.1861 32.9872 13.6463 32.9872 13.0789C32.9872 12.1524 33.1196 11.1871 33.3843 10.185C32.8033 11.34 32.5109 12.4453 32.5109 13.5045ZM46.4622 0.287369C47.1702 0.287369 47.5233 0.598684 47.5233 1.22316C47.5233 1.35579 47.4166 3.04868 47.2051 6.3C46.7987 12.2942 46.5946 15.9729 46.5946 17.3342C46.5946 18.2608 46.727 19.0547 46.9918 19.7161C46.727 19.2997 46.5671 19.0345 46.5137 18.9221C46.4604 18.8079 46.3813 18.515 46.2747 18.0434C46.0981 17.1924 46.0264 15.7261 46.0632 13.6463C46.0099 13.0789 45.9749 11.9829 45.9566 10.3563C45.9382 10.5461 45.8683 11.2166 45.7451 12.3697C45.6752 12.9187 45.6384 13.5984 45.6384 14.4126C45.6384 15.1882 45.7175 16.2179 45.8775 17.5037C45.9474 18.1853 46.0283 18.6292 46.1165 18.8374C46.2397 19.1579 46.488 19.4987 46.8594 19.8579C45.039 19.2537 43.9688 18.2405 43.6506 16.8221C43.4925 16.1037 43.3583 14.8547 43.2534 13.0771C43.2001 12.1321 43.121 9.94737 43.0144 6.52474C43.0144 5.84316 42.9703 4.84105 42.882 3.51842C42.7588 2.8 42.5381 2.26026 42.2182 1.90105C41.9883 1.65605 41.8725 1.51421 41.8725 1.47552C41.8725 1.05921 42.5363 0.738685 43.8621 0.510264C44.765 0.362895 45.6329 0.287369 46.4622 0.287369Z" fill="url(#paint0_linear_12_2427)"/>
</g>
<defs>
<linearGradient id="paint0_linear_12_2427" x1="0.125151" y1="10.0727" x2="47.524" y2="10.0727" gradientUnits="userSpaceOnUse">
<stop stop-color="#FDC72A"/>
<stop offset="1" stop-color="#E95A8B"/>
</linearGradient>
<clipPath id="clip0_12_2427">
<rect width="59.027" height="28" fill="white"/>
</clipPath>
</defs>
</svg>
