<?xml version="1.0" standalone="no"?>
<!DOCTYPE svg PUBLIC "-//W3C//DTD SVG 20010904//EN"
 "http://www.w3.org/TR/2001/REC-SVG-20010904/DTD/svg10.dtd">
<svg version="1.0" xmlns="http://www.w3.org/2000/svg"
 width="152.000000pt" height="152.000000pt" viewBox="0 0 152.000000 152.000000"
 preserveAspectRatio="xMidYMid meet">
<metadata>
Created by potrace 1.11, written by Peter Selinger 2001-2013
</metadata>
<g transform="translate(0.000000,152.000000) scale(0.100000,-0.100000)"
fill="#000000" stroke="none">
<path d="M0 760 l0 -760 760 0 760 0 0 760 0 760 -760 0 -760 0 0 -760z m762
539 c-2 -19 -3 -49 -4 -66 -2 -38 -15 -43 -27 -10 -6 14 -4 31 6 50 8 15 11
37 7 49 -4 15 -2 19 7 16 9 -3 13 -17 11 -39z m-126 -54 c4 -16 0 -34 -10 -50
-13 -19 -14 -30 -6 -45 9 -16 8 -20 -4 -20 -24 0 -30 44 -11 73 13 20 14 30 5
46 -9 17 -8 21 4 21 9 0 18 -11 22 -25z m270 1 c4 -15 0 -34 -10 -47 -9 -14
-13 -32 -9 -47 4 -18 2 -23 -8 -20 -21 7 -23 46 -4 75 12 18 14 28 6 36 -15
15 -14 27 4 27 8 0 17 -11 21 -24z m-86 -226 c0 -13 -7 -20 -20 -20 -17 0 -20
-7 -20 -44 l0 -43 50 -7 c71 -9 174 -50 178 -71 9 -42 -111 -227 -136 -211 -8
5 -12 38 -12 91 0 75 -2 85 -22 99 -32 22 -68 21 -68 -3 0 -14 -10 -20 -37
-24 -57 -10 -78 -30 -118 -112 -58 -121 -107 -137 -136 -45 -41 130 -46 149
-37 144 14 -9 108 27 108 41 0 11 -7 11 -42 0 -24 -7 -51 -16 -60 -20 -33 -13
-19 3 30 34 57 36 144 68 213 77 l49 7 0 43 c0 37 -3 44 -20 44 -13 0 -20 7
-20 20 0 18 7 20 60 20 53 0 60 -2 60 -20z m-382 -7 c-13 -3 -18 -14 -18 -38
0 -24 5 -35 18 -38 12 -3 10 -5 -7 -6 -20 -1 -22 -4 -16 -28 4 -16 7 -99 6
-186 -1 -113 2 -164 10 -175 12 -16 11 -16 -4 -1 -10 8 -26 37 -37 65 -10 27
-19 42 -19 34 -1 -26 46 -117 64 -123 58 -23 123 12 166 88 29 51 31 53 59 42
22 -8 35 -8 57 3 15 8 31 16 36 18 4 2 7 -15 7 -37 0 -31 5 -44 23 -55 35 -23
76 -8 129 46 l49 48 -8 -38 c-16 -81 0 -122 51 -122 35 0 106 41 158 92 38 37
53 46 59 36 21 -31 51 -126 62 -197 l13 -76 37 -3 c41 -4 43 -8 23 -55 -23
-57 -48 -66 -200 -69 -75 -2 -136 0 -136 5 0 4 3 7 8 7 12 0 76 100 68 108 -4
4 -17 -6 -29 -23 -52 -71 -79 -95 -108 -95 -42 0 -40 33 3 45 38 12 59 55 42
83 -24 38 -120 18 -145 -31 -14 -26 -80 -97 -91 -97 -4 0 -8 33 -8 73 0 95
-15 119 -73 115 -38 -3 -44 -7 -61 -43 l-20 -40 -8 33 c-10 37 -29 41 -51 9
l-16 -22 0 23 c-1 28 -34 62 -61 62 -19 0 -20 -7 -20 -105 l0 -105 -113 0
c-123 0 -145 7 -172 60 -25 48 -20 60 23 60 l38 0 11 86 c12 85 48 181 93 243
20 28 20 29 0 132 -11 57 -20 113 -20 125 0 27 31 54 72 64 36 9 87 11 56 3z
m716 -282 c56 -57 55 -58 -27 -129 -48 -42 -70 -51 -82 -32 -7 11 44 210 54
210 4 0 29 -22 55 -49z m-390 -4 c-8 -21 -52 -50 -64 -42 -27 17 -5 59 35 67
26 6 37 -4 29 -25z m-79 -317 c4 -6 4 -48 0 -93 l-7 -83 -66 3 c-36 2 -68 5
-70 8 -7 7 20 145 28 145 5 0 12 -17 15 -37 14 -80 29 -86 40 -15 9 61 42 101
60 72z m295 -90 c-11 -21 -50 -34 -50 -16 0 6 7 22 16 34 12 18 19 20 30 11 9
-8 11 -16 4 -29z m-148 -82 c-7 -7 -12 -8 -12 -2 0 14 12 26 19 19 2 -3 -1
-11 -7 -17z"/>
<path d="M361 674 c0 -11 3 -14 6 -6 3 7 2 16 -1 19 -3 4 -6 -2 -5 -13z"/>
</g>
</svg>
